<svg width="60" height="60" viewBox="0 0 60 60" fill="none" xmlns="http://www.w3.org/2000/svg">
<g id="&#225;&#132;&#128;&#225;&#133;&#181;&#225;&#132;&#135;&#225;&#133;&#169;&#225;&#134;&#171; &#225;&#132;&#145;&#225;&#133;&#179;&#225;&#132;&#133;&#225;&#133;&#169;&#225;&#132;&#145;&#225;&#133;&#181;&#225;&#134;&#175;" clip-path="url(#clip0_488_611)">
<path id="Vector" d="M50.665 50.3342C45.4033 55.6811 38.0915 59.0001 29.9996 59.0001C21.9076 59.0001 14.5959 55.6811 9.33412 50.3342C9.2537 49.856 9.20996 49.3757 9.20996 48.8929C9.20996 45.3142 11.3828 41.9524 15.1469 39.4397C18.9041 36.9315 24.1523 35.3477 29.9996 35.3477C35.8468 35.3477 41.095 36.9315 44.8522 39.4397C48.6163 41.9524 50.7892 45.3142 50.7892 48.8929C50.7892 49.3757 50.7454 49.856 50.665 50.3342Z" stroke="#7B83D2" stroke-width="2"/>
<path id="Vector_2" d="M38.0413 22.3966C38.0413 26.8379 34.4409 30.4383 29.9997 30.4383C25.5584 30.4383 21.958 26.8379 21.958 22.3966C21.958 17.9554 25.5584 14.355 29.9997 14.355C34.4409 14.355 38.0413 17.9554 38.0413 22.3966Z" stroke="#7B83D2" stroke-width="2"/>
<path id="Subtract" fill-rule="evenodd" clip-rule="evenodd" d="M30.0004 60C13.432 60 0.000747681 46.5685 0.000747681 30C0.000747681 13.4315 13.432 0 30.0004 0C46.5687 0 60 13.4315 60 30C60 46.5685 46.5687 60 30.0004 60ZM30 58.0007C14.536 58.0007 2 45.4645 2 30.0004C2 14.5362 14.536 2 30 2C45.464 2 58 14.5362 58 30.0004C58 45.4645 45.464 58.0007 30 58.0007Z" fill="url(#paint0_linear_488_611)"/>
</g>
<defs>
<linearGradient id="paint0_linear_488_611" x1="65.0602" y1="12.6506" x2="0.000185307" y2="59.9992" gradientUnits="userSpaceOnUse">
<stop stop-color="#FA00FF"/>
<stop offset="1" stop-color="#0085FF"/>
</linearGradient>
<clipPath id="clip0_488_611">
<rect width="60" height="60" fill="white"/>
</clipPath>
</defs>
</svg>
