<svg width="2rem" height="2rem" viewBox="0 0 20 20" fill="none" xmlns="http://www.w3.org/2000/svg">
<g id="alert-circle-outline">
<path id="Vector" d="M9.16699 12.4998H10.5V14.1665H9.16699V12.4998ZM9.16699 5.83317H10.5V10.8332H9.16699V5.83317ZM10.0003 1.6665C5.39199 1.6665 1.66699 5.4165 1.66699 9.99984C1.66699 12.21 2.54497 14.3296 4.10777 15.8924C4.88159 16.6662 5.80025 17.28 6.8113 17.6988C7.82234 18.1176 8.90598 18.3332 10.0003 18.3332C12.2105 18.3332 14.3301 17.4552 15.8929 15.8924C17.4557 14.3296 18.3337 12.21 18.3337 9.99984C18.3337 8.90549 18.1181 7.82186 17.6993 6.81081C17.2805 5.79976 16.6667 4.8811 15.8929 4.10728C15.1191 3.33346 14.2004 2.71963 13.1894 2.30084C12.1783 1.88205 11.0947 1.6665 10.0003 1.6665ZM10 17.5C8.23189 17.5 6.25024 16.7502 5 15.5C3.74976 14.2498 2.5 11.7679 2.5 9.99984C2.5 8.23173 3.24976 6.25024 4.5 5C6 3.5 8.23189 2.5 10 2.5C11.7681 2.5 13.7498 3.24976 15 4.5C16.2502 5.75024 17.5 8.23173 17.5 9.99984C17.5 11.7679 16.2502 14.2498 15 15.5C13.7498 16.7502 11.7681 17.5 10 17.5Z" fill="#FA00FF"/>
</g>
</svg>
